<svg id="Layer_1" data-name="Layer 1" xmlns="http://www.w3.org/2000/svg" viewBox="0 0 40.93 45.58"><defs><style>.cls-1{fill:#7480ff;}</style></defs><title>asset-</title><g id="VfKIBR.tif"><path class="cls-1" d="M-.07,6.53C0,6.12.07,5.71.17,5.31A7.13,7.13,0,0,1,7,0H29a7.12,7.12,0,0,1,7.08,6.39,10.93,10.93,0,0,1,.06,1.15V17.9a1.84,1.84,0,1,1-3.68.1c0-1.58,0-3.17,0-4.76,0-1.91-.07-3.82,0-5.73a3.66,3.66,0,0,0-3.93-3.9c-5,0-10,0-15,0-2.08,0-4.15,0-6.23,0A3.52,3.52,0,0,0,3.9,5.71a3.23,3.23,0,0,0-.31,1.37q0,15.72,0,31.45A3.49,3.49,0,0,0,7.3,42c1.82,0,3.64,0,5.47,0a1.84,1.84,0,0,1,2.06,1.48,1.87,1.87,0,0,1-1.3,2.11H6.06l-.25-.07a7.13,7.13,0,0,1-4.73-3.16A7.77,7.77,0,0,1-.07,39.08Z"/><path class="cls-1" d="M20.56,45.58A1.87,1.87,0,0,1,19.38,43l2-6.46a3,3,0,0,1,.77-1.28q4.74-4.71,9.48-9.43a5.38,5.38,0,0,1,9.24,3.55,4.88,4.88,0,0,1-1.41,3.81c-3.29,3.32-6.6,6.61-9.9,9.91a2.35,2.35,0,0,1-1.05.54l-6.93,1.94ZM24,41.08l.14,0L27,40.25a1.27,1.27,0,0,0,.52-.32c2-2,4-4,6-6,.24-.23.19-.36,0-.56-.62-.6-1.23-1.2-1.82-1.83-.27-.29-.43-.27-.7,0-2,2-3.94,3.94-5.91,5.91a1,1,0,0,0-.28.34c-.32,1-.63,2-.94,3.05C23.8,41,23.86,41.1,24,41.08ZM37.17,29.56A1.69,1.69,0,0,0,36.05,28a1.83,1.83,0,0,0-1.94.5c-.12.13-.15.23,0,.37l2.07,2.07c.17.18.3.13.44,0A1.73,1.73,0,0,0,37.17,29.56Z"/><path class="cls-1" d="M18,10.68h9.25A1.74,1.74,0,0,1,29,12.12a1.82,1.82,0,0,1-.89,2,1.79,1.79,0,0,1-.85.22H8.82a1.81,1.81,0,0,1,0-3.61Z"/><path class="cls-1" d="M18,17.79h9.2A1.75,1.75,0,0,1,29,19.24a1.82,1.82,0,0,1-.9,2,1.71,1.71,0,0,1-.85.22q-9.21,0-18.41,0a1.81,1.81,0,0,1,0-3.61Z"/><path class="cls-1" d="M14.45,24.91h5.46a1.81,1.81,0,1,1,0,3.62H8.83A1.8,1.8,0,0,1,7.05,27a1.85,1.85,0,0,1,1.19-2A2.06,2.06,0,0,1,9,24.91Z"/></g></svg>