<svg id="Layer_1" data-name="Layer 1" xmlns="http://www.w3.org/2000/svg" viewBox="0 0 40.93 45.58"><defs><style>.cls-1{fill:#45d05b;}</style></defs><title>asset-</title><g id="VfKIBR.tif"><path class="cls-1" d="M-.07,6.53C0,6.12.07,5.71.17,5.31A7.13,7.13,0,0,1,7,0H29a7.12,7.12,0,0,1,7.08,6.39,10.93,10.93,0,0,1,.06,1.15V17.9a1.84,1.84,0,1,1-3.68.1c0-1.58,0-3.17,0-4.76,0-1.91-.07-3.82,0-5.73a3.66,3.66,0,0,0-3.93-3.9c-5,0-10,0-15,0-2.08,0-4.15,0-6.23,0A3.52,3.52,0,0,0,3.9,5.71a3.23,3.23,0,0,0-.31,1.37q0,15.72,0,31.45A3.49,3.49,0,0,0,7.3,42c1.82,0,3.64,0,5.47,0a1.84,1.84,0,0,1,2.06,1.48,1.87,1.87,0,0,1-1.3,2.11H6.06l-.25-.07a7.13,7.13,0,0,1-4.73-3.16A7.77,7.77,0,0,1-.07,39.08Z"/><path class="cls-1" d="M18,10.68h9.25A1.74,1.74,0,0,1,29,12.12a1.82,1.82,0,0,1-.89,2,1.79,1.79,0,0,1-.85.22H8.82a1.81,1.81,0,0,1,0-3.61Z"/><path class="cls-1" d="M18,17.79h9.2A1.75,1.75,0,0,1,29,19.24a1.82,1.82,0,0,1-.9,2,1.71,1.71,0,0,1-.85.22q-9.21,0-18.41,0a1.81,1.81,0,0,1,0-3.61Z"/><path class="cls-1" d="M14.45,24.91h5.46a1.81,1.81,0,1,1,0,3.62H8.83A1.8,1.8,0,0,1,7.05,27a1.85,1.85,0,0,1,1.19-2A2.06,2.06,0,0,1,9,24.91Z"/></g><g id="yKJtel.tif"><path class="cls-1" d="M30,24.85h1.71c.43.06.85.11,1.27.2a10,10,0,0,1-3.84,19.64,9.71,9.71,0,0,1-7.95-7.19,10,10,0,0,1-.32-1.8V34c0-.28.06-.57.11-.84a9.92,9.92,0,0,1,7.16-7.94A9.69,9.69,0,0,1,30,24.85ZM29.64,40.6a.88.88,0,0,0,.67-.32L36,34.57l1.26-1.25a.83.83,0,0,0,0-1.18c-.39-.39-.78-.78-1.18-1.16a.78.78,0,0,0-.58-.23.89.89,0,0,0-.64.32l-5,5c-.14.14-.21.15-.35,0-.91-.92-1.83-1.83-2.75-2.74a.78.78,0,0,0-1.2,0c-.38.36-.75.73-1.12,1.11a.82.82,0,0,0,0,1.2c.16.17.32.32.48.48L29,40.3A.83.83,0,0,0,29.64,40.6Z"/></g></svg>