<svg id="Layer_1" data-name="Layer 1" xmlns="http://www.w3.org/2000/svg" viewBox="0 0 40.93 45.58"><defs><style>.cls-1{fill:#747474;}</style></defs><title>asset-</title><g id="ARKenK.tif"><path class="cls-1" d="M29,2c0,1.16,0,2.33,0,3.49,0,.24-.1.35-.34.35H7c-.65,0-.65,0-.65.63V32c0,.21-.09.33-.31.33H2.77c-.22,0-.31-.12-.31-.33s0-.27,0-.41V6.39c0-2.52.7-3.53,3-4.43Z"/><path class="cls-1" d="M38.46,26.57c0,4.43,0,8.86,0,13.29a3.74,3.74,0,0,1-3.13,3.71,3.16,3.16,0,0,1-.69,0H13.87A3.77,3.77,0,0,1,10,39.78V13.32A3.77,3.77,0,0,1,13.84,9.5H34.65a3.74,3.74,0,0,1,3.8,3.78C38.47,17.71,38.46,22.14,38.46,26.57Zm-24.56,0V39.22c0,.53,0,.53.54.53H34c.56,0,.56,0,.56-.55V13.92c0-.56,0-.56-.56-.56H14.48c-.58,0-.58,0-.58.58Z"/></g></svg>