<svg id="Layer_1" data-name="Layer 1" xmlns="http://www.w3.org/2000/svg" viewBox="0 0 40.93 45.58"><defs><style>.cls-1{fill:#7480ff;}</style></defs><title>asset-</title><g id="HhZbkc.tif"><path class="cls-1" d="M1,33.42a2.36,2.36,0,0,1,.49-.68l29-29a2.23,2.23,0,0,1,.67-.48h.77a3.76,3.76,0,0,1,.73.6q3.4,3.42,6.83,6.83a1.28,1.28,0,0,1,0,2.1L10.52,41.71a1.29,1.29,0,0,1-2.15,0q-3.4-3.39-6.8-6.8A3.88,3.88,0,0,1,1,34.18ZM20.39,21.54a1.12,1.12,0,0,1-.67,1.06,1.11,1.11,0,0,1-1.3-.2c-.48-.45-1-.92-1.4-1.4-.17-.17-.29-.19-.47,0q-.75.78-1.53,1.53c-.21.19-.17.32,0,.49.36.35.72.72,1.07,1.08.51.5,1,1,1.5,1.51A1.15,1.15,0,0,1,17.8,27a1.19,1.19,0,0,1-1.23.58,1.47,1.47,0,0,1-.78-.45l-2.44-2.45c-.18-.19-.31-.2-.49,0-.5.53-1,1-1.53,1.54-.19.17-.17.29,0,.45.47.45.93.91,1.38,1.37a1.13,1.13,0,0,1,.34,1,1.16,1.16,0,0,1-.78.91A1.13,1.13,0,0,1,11,29.7c-.46-.44-.91-.88-1.34-1.35-.2-.21-.33-.19-.52,0-.47.5-.95,1-1.45,1.45-.26.24-.22.38,0,.6.83.8,1.64,1.63,2.46,2.44a1.21,1.21,0,0,1,.41,1.06,1.14,1.14,0,0,1-.8,1,1.1,1.1,0,0,1-1.22-.3L6,32c-.17-.18-.28-.19-.46,0-.48.5-1,1-1.48,1.48-.24.23-.23.36,0,.6q2.51,2.49,5,5c.36.35.36.35.73,0L28.5,20.37l8.31-8.31c.16-.16.32-.27.07-.52q-2.61-2.59-5.21-5.21c-.19-.19-.3-.15-.47,0-.49.51-1,1-1.5,1.51-.23.21-.18.32,0,.5.86.85,1.71,1.71,2.55,2.57a1.16,1.16,0,0,1-.09,1.77,1.17,1.17,0,0,1-1.62-.15C29.7,11.7,28.86,10.86,28,10c-.19-.19-.3-.2-.49,0-.5.52-1,1-1.53,1.53-.15.15-.21.25,0,.43.46.44.91.89,1.35,1.34a1.19,1.19,0,0,1,.05,1.74A1.15,1.15,0,0,1,25.66,15c-.44-.43-.89-.87-1.32-1.32-.17-.19-.29-.16-.45,0-.51.52-1,1-1.54,1.53-.2.19-.17.31,0,.49L24,17.26c.34.36.71.69,1,1.07a1.18,1.18,0,0,1-.59,1.91,1.23,1.23,0,0,1-1.24-.41c-.82-.82-1.65-1.64-2.47-2.48-.18-.18-.31-.2-.49,0-.49.51-1,1-1.51,1.5-.22.21-.17.34,0,.52.44.42.86.86,1.29,1.29A1.18,1.18,0,0,1,20.39,21.54Z"/></g></svg>