<svg id="Layer_1" data-name="Layer 1" xmlns="http://www.w3.org/2000/svg" viewBox="0 0 40.93 45.58"><defs><style>.cls-1{fill:#ababab;}</style></defs><title>asset-</title><path class="cls-1" d="M37.9,8,35.24,5.35a7.06,7.06,0,0,0-10,0L3.75,26.88a1.07,1.07,0,0,0-.32.6L1,40.94a1.11,1.11,0,0,0,.32,1,1.13,1.13,0,0,0,.81.34l.2,0,13.46-2.45a1.19,1.19,0,0,0,.61-.31L37.9,18a7.06,7.06,0,0,0,0-10ZM36,9.33,14.11,31.2a12.11,12.11,0,0,0-2-2.06L33.93,7.27ZM4.79,32.79l.71-3.92a9.89,9.89,0,0,1,8.88,8.88l-3.92.72A7.16,7.16,0,0,0,4.79,32.79ZM26.88,7a4.74,4.74,0,0,1,3.37-1.4A4.68,4.68,0,0,1,32,5.92l-21.95,22a12.22,12.22,0,0,0-3-1.08ZM4.38,35a4.86,4.86,0,0,1,3.83,3.83l-4.68.86Zm31.9-18.67L16.45,36.2a12.2,12.2,0,0,0-1.07-3L37.33,11.21A4.68,4.68,0,0,1,37.68,13,4.74,4.74,0,0,1,36.28,16.37Z"/></svg>