<svg id="Layer_1" data-name="Layer 1" xmlns="http://www.w3.org/2000/svg" viewBox="0 0 40.93 45.58"><defs><style>.cls-1{fill:#7480ff;}</style></defs><title>asset-</title><g id="ARKenK.tif"><path class="cls-1" d="M29,2c0,1.16,0,2.33,0,3.49,0,.24-.1.35-.34.35H7c-.65,0-.65,0-.65.63V32c0,.21-.09.33-.31.33H2.77c-.22,0-.31-.12-.31-.33s0-.27,0-.41V6.39c0-2.52.7-3.53,3-4.43Z"/><path class="cls-1" d="M29.08,25.57H25.56c-.32,0-.33,0-.33-.32,0-1.18,0-2.37,0-3.55,0-.19-.06-.27-.26-.26H23.52c-.27,0-.28,0-.28.29v3.51c0,.33,0,.33-.32.33H19.36c-.19,0-.26.06-.25.25,0,.49,0,1,0,1.47,0,.27,0,.28.29.28h3.51c.33,0,.33,0,.33.32v3.55c0,.19.05.26.25.26H25c.24,0,.25,0,.25-.27V27.9c0-.33,0-.33.33-.33,1.18,0,2.37,0,3.55,0,.19,0,.26-.06.26-.25,0-.49,0-1,0-1.47C29.36,25.58,29.36,25.57,29.08,25.57Z"/><path class="cls-1" d="M38.45,13.28a3.74,3.74,0,0,0-3.8-3.78H13.84A3.77,3.77,0,0,0,10,13.32V39.78a3.77,3.77,0,0,0,3.84,3.84H34.63a3.16,3.16,0,0,0,.69,0,3.74,3.74,0,0,0,3.13-3.71c0-4.43,0-8.86,0-13.29S38.47,17.71,38.45,13.28Zm-4,14.87a10.39,10.39,0,0,1-7.31,8.32,12.74,12.74,0,0,1-2,.38H23.39l-.75-.1a10.39,10.39,0,0,1-8.3-7.29A13,13,0,0,1,14,27.41V25.73c0-.31.07-.62.13-.92a10,10,0,0,1,3.11-5.73A10,10,0,0,1,26,16.41,10.31,10.31,0,0,1,34.42,28.15Z"/></g></svg>