<svg id="Layer_1" data-name="Layer 1" xmlns="http://www.w3.org/2000/svg" viewBox="0 0 40.93 45.58"><defs><style>.cls-1{fill:#7480ff;}</style></defs><title>asset-</title><path class="cls-1" d="M36.21,28.46H34.87V12.89A3.28,3.28,0,0,0,31.6,9.61H9.33a3.28,3.28,0,0,0-3.28,3.28V28.46H4.72a3.76,3.76,0,1,0,0,7.51H36.21a3.76,3.76,0,0,0,0-7.51ZM8.27,12.89a1.07,1.07,0,0,1,1.06-1.06H31.6a1.07,1.07,0,0,1,1.06,1.06V28.46H8.27ZM36.21,33.75H4.72a1.54,1.54,0,0,1,0-3.08H36.21a1.54,1.54,0,0,1,0,3.08Z"/><path class="cls-1" d="M27.57,16.42H13.16a1.11,1.11,0,1,1,0-2.22H27.57a1.11,1.11,0,0,1,0,2.22Z"/><path class="cls-1" d="M27.57,21.25H13.16a1.11,1.11,0,1,1,0-2.21H27.57a1.11,1.11,0,1,1,0,2.21Z"/><path class="cls-1" d="M19.45,26.09H13.16a1.11,1.11,0,0,1,0-2.22h6.29a1.11,1.11,0,0,1,0,2.22Z"/></svg>