<svg id="Layer_1" data-name="Layer 1" xmlns="http://www.w3.org/2000/svg" viewBox="0 0 40.93 45.58"><defs><style>.cls-1{fill:#7480ff;}</style></defs><title>asset-</title><g id="uONf9Z.tif"><path class="cls-1" d="M1,34.71Q1,22.49,1,10.26c0-.25,0-.34.32-.34,3.63,0,7.25,0,10.87,0a1.51,1.51,0,0,1,1,1.55V34.07a1.41,1.41,0,0,1-1.6,1.58c-3,0-6,0-9,0A1.5,1.5,0,0,1,1,34.71Zm9.43-11.9V13.13c0-.48,0-.51-.49-.51H4.13c-.36,0-.49.11-.48.48V32.47c0,.36.12.48.48.47H9.69c.71,0,.71,0,.71-.7Z"/><path class="cls-1" d="M15.35,9.93H39a1.54,1.54,0,0,1,1,1.61c0,3,0,6,0,9a1.39,1.39,0,0,1-1.56,1.57H15.91a1.42,1.42,0,0,1-1.57-1.58c0-3,0-6.05,0-9.08A1.48,1.48,0,0,1,15.35,9.93Zm11.79,2.69H17.59c-.54,0-.54,0-.54.55v5.74c0,.47,0,.49.5.49h19.2c.47,0,.49,0,.49-.5V13.16c0-.54,0-.54-.56-.54Z"/><path class="cls-1" d="M40,29.55v4.64a1.33,1.33,0,0,1-1.46,1.46H29.28a1.38,1.38,0,0,1-1.53-1.53c0-1.65,0-3.29,0-4.94V25.11a1.46,1.46,0,0,1,1.68-1.67h8.94a1.52,1.52,0,0,1,1.29.52,1.39,1.39,0,0,1,.31.92C40,26.43,40,28,40,29.55Zm-6.08-3.39h-3c-.28,0-.42.09-.42.39v6c0,.29.12.4.41.4h5.93c.32,0,.42-.12.41-.43,0-2,0-3.95,0-5.92,0-.33-.12-.44-.45-.44Z"/><path class="cls-1" d="M20.45,35.65H15.84a1.37,1.37,0,0,1-1.5-1.52q0-4.58,0-9.15a1.39,1.39,0,0,1,1.5-1.53h9.21A1.38,1.38,0,0,1,26.55,25q0,4.59,0,9.16a1.37,1.37,0,0,1-1.5,1.52Zm0-2.71h3c.34,0,.48-.08.48-.45,0-2,0-3.94,0-5.92,0-.31-.11-.42-.42-.42q-3,0-6,0c-.32,0-.42.12-.41.43,0,2,0,4,0,5.92,0,.33.1.45.43.44Z"/></g></svg>